<svg width="16" height="16" viewBox="0 0 16 16" fill="none" xmlns="http://www.w3.org/2000/svg">
<path d="M14.7302 2.16797C13.3031 2.24896 10.4666 2.54375 8.71559 3.61562C8.59476 3.68958 8.52627 3.82109 8.52627 3.95859V13.4344C8.52627 13.7352 8.85518 13.9253 9.13252 13.7857C10.9341 12.8789 13.5395 12.6315 14.8278 12.5638C15.2677 12.5406 15.6096 12.188 15.6096 11.7654V2.96745C15.6099 2.50625 15.2099 2.14088 14.7302 2.16797ZM7.50387 3.61562C5.75309 2.54375 2.91663 2.24922 1.48955 2.16797C1.00986 2.14088 0.609863 2.50625 0.609863 2.96745V11.7656C0.609863 12.1885 0.95179 12.5411 1.39163 12.5641C2.68044 12.6318 5.28721 12.8794 7.08877 13.7867C7.36533 13.926 7.6932 13.7362 7.6932 13.4362V3.95391C7.6932 3.81614 7.62497 3.68984 7.50387 3.61562Z" fill="white"/>
</svg>
